<svg xmlns="http://www.w3.org/2000/svg" xmlns:xlink="http://www.w3.org/1999/xlink" viewBox="0 0 48 47.93"><defs><style>.cls-1,.cls-2{fill:#fff;}.cls-2{stroke:#000;stroke-miterlimit:10;stroke-width:0.31px;}.cls-3{fill:#00c09f;}.cls-4{mask:url(#mask);}.cls-5{opacity:0.5;}.cls-6{fill:#96deb8;}.cls-7{fill:#ffc245;}.cls-8{fill:#444443;}.cls-9{fill:#ebebeb;}.cls-10{fill:none;stroke:#444443;stroke-linecap:round;stroke-linejoin:round;stroke-width:0.32px;}.cls-11{fill:#eb6f8a;}.cls-12{fill:#bcb4b4;}</style><mask id="mask" x="0" y="0" width="48" height="47.93" maskUnits="userSpaceOnUse"><rect class="cls-1" x="0.07" width="47.93" height="47.93" rx="3.78"/></mask></defs><g id="레이어_2" data-name="레이어 2"><g id="레이어_1-2" data-name="레이어 1"><polyline class="cls-2" points="16.51 39.08 16.51 41.62 31.6 41.62 31.6 38.98"/><rect class="cls-3" x="0.07" width="47.93" height="47.93" rx="3.78"/><path class="cls-1" d="M24,17.55,20,13.49a5.76,5.76,0,0,1,0-8.13h0a5.76,5.76,0,0,1,8.13,0h0a5.76,5.76,0,0,1,0,8.13Z"/><g class="cls-4"><g class="cls-5"><path class="cls-6" d="M.07,26.61,7,19.69a4.36,4.36,0,0,1,6.18,0L26.29,32.8,37.55,25a4.37,4.37,0,0,1,5.63.55l4.75,4.91V47.93H0Z"/></g></g><circle class="cls-7" cx="24.04" cy="9.12" r="3.17"/><rect class="cls-8" x="3.97" y="24.62" width="17.66" height="8.67" rx="4.34" transform="translate(-18.68 25.56) rotate(-60)"/><path class="cls-9" d="M12.42,47.93s2.63-9.75,11.36-9.75,11.14,9.75,11.14,9.75Z"/><path class="cls-7" d="M15.14,41h0a1.69,1.69,0,0,0,1.51,1.82H31.42A1.69,1.69,0,0,0,32.93,41v-.12a1.69,1.69,0,0,0-1.52-1.82l-14.77.12A1.69,1.69,0,0,0,15.14,41Z"/><rect class="cls-8" x="30.77" y="20.13" width="8.67" height="17.66" rx="4.34" transform="matrix(0.87, -0.5, 0.5, 0.87, -9.77, 21.43)"/><path class="cls-1" d="M26.36,40.33H21.57c-5.05,0-9.15-4.48-9.15-10h0c0-5.52,4.1-10,9.15-10h4.79c5.05,0,9.14,4.47,9.14,10h0C35.43,35.94,31.35,40.41,26.36,40.33Z"/><circle class="cls-8" cx="18.93" cy="27.75" r="1.2"/><circle class="cls-8" cx="29.08" cy="27.81" r="1.2"/><circle class="cls-8" cx="24.04" cy="30.33" r="1.26"/><line class="cls-10" x1="24.06" y1="30.88" x2="24.06" y2="33.4"/><path class="cls-11" d="M26.56,34.49v2A2.52,2.52,0,0,1,24,39h0a2.52,2.52,0,0,1-2.53-2.52v-2c1,.48,1.82,0,2.55-1A1.93,1.93,0,0,0,26.56,34.49Z"/><path class="cls-10" d="M24.06,32.86a1.81,1.81,0,0,1-3.62,0"/><path class="cls-10" d="M27.68,32.86a1.81,1.81,0,1,1-3.62,0"/><path class="cls-1" d="M34.92,41.62h0a5.67,5.67,0,0,0-5.67,5.68v.63H40.6V47.3A5.68,5.68,0,0,0,34.92,41.62Z"/><path class="cls-1" d="M13.31,41.62h0A5.67,5.67,0,0,0,7.64,47.3v.63H19V47.3A5.68,5.68,0,0,0,13.31,41.62Z"/><rect class="cls-12" x="22.09" y="41.62" width="3.95" height="5.01" rx="1.97"/></g></g></svg>