<svg xmlns="http://www.w3.org/2000/svg" viewBox="0 0 249.92 71.13"><defs><style>.cls-1{fill:#00ad78;}</style></defs><g id="레이어_2" data-name="레이어 2"><g id="레이어_1-2" data-name="레이어 1"><path class="cls-1" d="M30,40H5a5,5,0,0,1-5-5V10.1a5,5,0,0,1,10,0V30H30a5,5,0,0,1,0,10Z"/><path class="cls-1" d="M45,50a5,5,0,0,1-5-5V5A5,5,0,0,1,50,5V45A5,5,0,0,1,45,50Z"/><path class="cls-1" d="M54.83,20H49.66a5,5,0,0,1,0-10h5.17a5,5,0,0,1,0,10Z"/><path class="cls-1" d="M82.16,71.13h0a5,5,0,0,1-3.54-1.46l-12-12a22,22,0,1,1,31.15,0l-12,12A5,5,0,0,1,82.16,71.13Zm0-41.1a12,12,0,0,0-8.51,20.52l8.51,8.51,8.5-8.51A12,12,0,0,0,82.16,30Z"/><path class="cls-1" d="M114.87,70.58a5,5,0,0,1-5-5v-40a5,5,0,1,1,10,0v40A5,5,0,0,1,114.87,70.58Z"/><path class="cls-1" d="M110.21,40.58h-11a5,5,0,0,1,0-10h11a5,5,0,0,1,0,10Z"/><path class="cls-1" d="M160,40.58H135a5,5,0,0,1-5-5V10.06a5,5,0,0,1,5-5h25a5,5,0,0,1,0,10H140V30.58h20a5,5,0,0,1,0,10Z"/><path class="cls-1" d="M175,55a5,5,0,0,1-5-5V5a5,5,0,0,1,10,0V50A5,5,0,0,1,175,55Z"/><circle class="cls-1" cx="81.85" cy="42.05" r="6.78"/><path class="cls-1" d="M194.92,65a5,5,0,0,1,0-10c5.11,0,8.82-1.44,11.33-4.39,3.52-4.14,4.25-10.83,4.15-15.53H194.92a5,5,0,0,1,0-10H215a5,5,0,0,1,4.93,4.18c.12.7,2.79,17.38-6,27.79C209.43,62.33,203.05,65,194.92,65Z"/><path class="cls-1" d="M230,70a5,5,0,0,1-5-5V25a5,5,0,1,1,10,0V65A5,5,0,0,1,230,70Z"/><path class="cls-1" d="M239.83,40h-5.17a5,5,0,0,1,0-10h5.17a5,5,0,0,1,0,10Z"/><path class="cls-1" d="M244.92,70a5,5,0,0,1-5-5V25a5,5,0,1,1,10,0V65A5,5,0,0,1,244.92,70Z"/></g></g></svg>